<svg xmlns="http://www.w3.org/2000/svg" viewBox="145 0 297.5 297.5"><style>.a{fill:#BCBDB8;}.b{fill:#D5797C;}</style><path d="M155.55 269.02v0.52c0 3.4-2.87 6.27-6.27 6.27h-1.05c-3.4 0-6.27-2.87-6.27-6.27v-0.52 -34.51 -120.79 -17.78c0-3.4 2.87-6.27 6.27-6.27h1.05c3.4 0 6.27 2.87 6.27 6.27v17.78 120.79V269.02z" fill="#1F4478"/><path d="M253.28 213.29c7.77 6.39 20.97 21.19 22.84 49 -16.28 6.62-62.5 21.95-99.65 0.89v-18.87C193.11 242.57 226.37 236.25 253.28 213.29z" class="a"/><path d="M121.04 244.31v18.87c-37.03 20.97-83.35 5.68-99.65-0.9 1.87-27.77 15.03-42.56 22.84-48.99C71.14 236.26 104.4 242.57 121.04 244.31z" class="a"/><path d="M262.58 39.38c8.16 25.81 28.67 106.86-17.69 153.22 -22.06 22.06-52.59 28.65-68.42 30.61v-109.49C176.47 113.14 177.48 57.12 262.58 39.38z" class="b"/><path d="M121.04 113.72v109.49c-15.84-1.96-46.36-8.55-68.42-30.61 -46.36-46.36-25.85-127.42-17.69-153.22C119.18 56.91 121 111.41 121.04 113.72z" class="b"/><path d="M297.25 269.02c0 3.96-2.23 7.58-5.78 9.35 -1.99 1-33.67 16.51-71.08 16.51 -15.71 0-32.43-2.75-48.38-10.44 -4.87 7.39-13.24 12.29-22.73 12.29h-1.05c-9.5 0-17.87-4.9-22.73-12.29 -15.96 7.69-32.68 10.44-48.39 10.44 -37.41 0-69.08-15.51-71.08-16.51 -3.54-1.77-5.78-5.39-5.78-9.35 0-38.74 17.49-60.44 29.44-70.75 -21.42-26.84-30.53-64.01-26.39-108.4 3.41-36.56 14.46-65.05 14.93-66.25 1.8-4.6 6.58-7.3 11.45-6.49 48.53 8.08 75.63 27.43 90.64 44.98l-9.33-27.99 -31.02-15.52c-4.65-2.32-6.54-7.97-4.21-12.62 2.32-4.65 7.97-6.54 12.63-4.21l34.51 17.25c2.23 1.12 3.93 3.08 4.72 5.45l14.96 44.88c1.82-0.39 3.71-0.6 5.65-0.6h1.05c1.93 0 3.83 0.21 5.65 0.6l14.96-44.88c0.79-2.37 2.49-4.33 4.72-5.45l34.51-17.25c4.65-2.33 10.3-0.44 12.63 4.21 2.32 4.65 0.44 10.3-4.21 12.62l-31.02 15.52 -9.33 27.99c15.01-17.55 42.11-36.9 90.63-44.98 4.86-0.81 9.65 1.89 11.46 6.49 0.46 1.2 11.51 29.69 14.92 66.25 4.14 44.39-4.97 81.56-26.38 108.4C279.77 208.58 297.25 230.28 297.25 269.02zM276.12 262.29c-1.87-27.81-15.07-42.61-22.84-49 -26.91 22.96-60.17 29.28-76.81 31.02v18.87C213.62 284.24 259.84 268.91 276.12 262.29zM244.89 192.6c46.36-46.36 25.85-127.41 17.69-153.22 -85.1 17.74-86.11 73.76-86.11 74.34v109.49C192.3 221.25 222.83 214.66 244.89 192.6zM155.55 269.54v-0.52 -34.51 -120.79 -17.78c0-3.4-2.87-6.27-6.27-6.27h-1.05c-3.4 0-6.27 2.87-6.27 6.27v17.78 120.79 34.51 0.52c0 3.4 2.87 6.27 6.27 6.27h1.05C152.68 275.81 155.55 272.94 155.55 269.54zM121.04 263.18v-18.87c-16.64-1.74-49.9-8.05-76.81-31.02 -7.81 6.43-20.97 21.22-22.84 48.99C37.69 268.86 84.01 284.15 121.04 263.18zM121.04 223.21v-109.49c-0.04-2.31-1.86-56.81-86.11-74.34 -8.16 25.8-28.67 106.86 17.69 153.22C74.68 214.66 105.2 221.25 121.04 223.21z"/></svg>