<svg xmlns="http://www.w3.org/2000/svg" viewBox="145 0 297.5 297.5"><style>.a{fill:#D5797A;}.b{fill:#DEC978;}</style><path d="M123.8 117.4v108.1c0 20.3-16.5 36.8-36.8 36.8 -20.3 0-36.8-16.5-36.8-36.8 0-15.6 9.9-29.5 24.5-34.7 3.8-1.3 6.4-4.9 6.4-9v-2.6c0-5.3-4.3-9.5-9.5-9.5 -28.8 0-52.2-23.4-52.2-52.2s23.4-52.2 52.3-52.2S123.8 88.6 123.8 117.4zM95.1 225.5c0-2.1-0.9-4.2-2.4-5.7 -1.5-1.5-3.6-2.4-5.7-2.4 -2.1 0-4.2 0.9-5.7 2.4 -1.5 1.5-2.4 3.6-2.4 5.7 0 2.1 0.9 4.2 2.4 5.7 1.5 1.5 3.6 2.4 5.7 2.4 2.1 0 4.2-0.9 5.7-2.4C94.2 229.7 95.1 227.6 95.1 225.5zM96.5 117.4c0-13.8-11.2-25-25-25 -13.8 0-25 11.2-25 25s11.2 25 25 25C85.3 142.4 96.5 131.2 96.5 117.4z" class="a"/><path d="M226 65.1c28.8 0 52.3 23.4 52.3 52.3s-23.4 52.3-52.2 52.3c-5.2 0-9.5 4.3-9.5 9.5v2.7c0 4 2.5 7.6 6.3 9 14.7 5.2 24.5 19.1 24.5 34.7 0 20.3-16.5 36.8-36.8 36.8 -20.3 0-36.8-16.5-36.8-36.8v-108.1C173.7 88.6 197.2 65.1 226 65.1zM250.9 117.4c0-13.8-11.2-25-25-25 -13.8 0-25 11.2-25 25s11.2 25 25 25C239.7 142.4 250.9 131.2 250.9 117.4zM218.6 225.5c0-2.1-0.9-4.2-2.4-5.7 -1.5-1.5-3.6-2.4-5.7-2.4 -2.1 0-4.2 0.9-5.7 2.4 -1.5 1.5-2.4 3.6-2.4 5.7 0 2.1 0.9 4.2 2.4 5.7 1.5 1.5 3.6 2.4 5.7 2.4 2.1 0 4.2-0.9 5.7-2.4C217.8 229.7 218.6 227.6 218.6 225.5z" class="a"/><path d="M154.7 225.5v31.1c0 3.1-2.6 5.7-5.7 5.7h-0.4c-3.1 0-5.7-2.6-5.7-5.7v-31.1 -108.1 -15.6c0-3.1 2.6-5.7 5.7-5.7h0.4c3.1 0 5.7 2.6 5.7 5.7v15.7V225.5z" fill="#7AC1A3"/><path d="M226 111.5c3.3 0 5.9 2.7 5.9 5.9s-2.7 5.9-5.9 5.9c-3.3 0-5.9-2.6-5.9-5.9S222.7 111.5 226 111.5z" class="b"/><path d="M71.5 111.5c3.3 0 5.9 2.7 5.9 5.9s-2.6 5.9-5.9 5.9c-3.3 0-5.9-2.6-5.9-5.9S68.3 111.5 71.5 111.5z" class="b"/><path d="M297.3 117.4c0 31.3-20.3 58-48.4 67.5 10.9 10.3 17.5 24.9 17.5 40.6 0 30.8-25 55.8-55.8 55.8 -15 0-28.5-5.9-38.6-15.5 -3.7 9.1-12.6 15.5-23 15.5h-0.4c-10.4 0-19.3-6.4-23-15.5 -10 9.6-23.6 15.5-38.6 15.5 -30.8 0-55.8-25-55.8-55.8 0-15.7 6.6-30.2 17.5-40.6 -28.1-9.6-48.4-36.2-48.4-67.5 0-39.3 32-71.3 71.3-71.3 19.5 0 37.3 7.9 50.1 20.7l-6.8-20.5 -27.7-13.9c-4.2-2.1-5.9-7.3-3.8-11.5 2.1-4.2 7.3-5.9 11.5-3.8l30.9 15.5c2 1 3.6 2.8 4.3 5l13.4 40.1c1.7-0.4 3.4-0.5 5.2-0.5h0.4c1.8 0 3.5 0.2 5.2 0.6l13.4-40.1c0.7-2.2 2.3-3.9 4.3-4.9l30.9-15.4c4.2-2.1 9.4-0.4 11.5 3.8 2.1 4.2 0.4 9.4-3.8 11.5l-27.7 13.9 -6.8 20.5c12.9-12.8 30.6-20.7 50.1-20.7C265.3 46.1 297.3 78.1 297.3 117.4zM278.2 117.4c0-28.8-23.4-52.2-52.2-52.2 -28.8 0-52.2 23.4-52.2 52.3v108.1c0 20.3 16.5 36.8 36.8 36.8 20.3 0 36.8-16.5 36.8-36.8 0-15.6-9.9-29.5-24.5-34.7 -3.8-1.3-6.3-4.9-6.3-9v-2.6c0-5.3 4.3-9.5 9.5-9.5C254.8 169.6 278.2 146.2 278.2 117.4zM154.7 256.6v-31.1 -108.1 -15.6c0-3.1-2.6-5.7-5.7-5.7h-0.4c-3.1 0-5.7 2.6-5.7 5.7v15.7 108.1 31.1c0 3.1 2.6 5.7 5.7 5.7h0.4C152.1 262.3 154.7 259.7 154.7 256.6zM123.8 225.5v-108.1c0-28.8-23.4-52.2-52.2-52.2s-52.2 23.4-52.2 52.3 23.4 52.3 52.3 52.3c5.3 0 9.5 4.3 9.5 9.5v2.7c0 4-2.5 7.6-6.3 9 -14.7 5.2-24.5 19.1-24.5 34.7 0 20.3 16.5 36.8 36.8 36.8C107.3 262.3 123.8 245.8 123.8 225.5z"/><path d="M226 92.4c13.8 0 25 11.2 25 25s-11.2 25-25 25c-13.8 0-25-11.2-25-25S212.2 92.4 226 92.4zM231.9 117.4c0-3.3-2.7-5.9-5.9-5.9 -3.3 0-5.9 2.7-5.9 5.9s2.7 5.9 5.9 5.9C229.2 123.3 231.9 120.7 231.9 117.4z"/><path d="M216.2 219.8c1.5 1.5 2.4 3.6 2.4 5.7 0 2.1-0.9 4.2-2.4 5.7 -1.5 1.5-3.6 2.4-5.7 2.4 -2.1 0-4.2-0.9-5.7-2.4 -1.5-1.5-2.4-3.6-2.4-5.7 0-2.1 0.9-4.2 2.4-5.7 1.5-1.5 3.6-2.4 5.7-2.4C212.7 217.4 214.7 218.3 216.2 219.8z"/><path d="M92.7 219.8c1.5 1.5 2.4 3.6 2.4 5.7 0 2.1-0.9 4.2-2.4 5.7 -1.5 1.5-3.6 2.4-5.7 2.4 -2.1 0-4.2-0.9-5.7-2.4 -1.5-1.5-2.4-3.6-2.4-5.7 0-2.1 0.9-4.2 2.4-5.7 1.5-1.5 3.6-2.4 5.7-2.4C89.1 217.4 91.2 218.3 92.7 219.8z"/><path d="M71.5 92.4c13.8 0 25 11.2 25 25s-11.2 25-25 25c-13.8 0-25-11.2-25-25S57.8 92.4 71.5 92.4zM77.5 117.4c0-3.3-2.6-5.9-5.9-5.9 -3.3 0-5.9 2.7-5.9 5.9s2.7 5.9 5.9 5.9C74.8 123.3 77.5 120.7 77.5 117.4z"/></svg>
 