<svg xmlns="http://www.w3.org/2000/svg" viewBox="145 0 297.5 297.5"><style>.a{fill:#8E4942;}.b{fill:#D5797C;}</style><path d="M148.8 81.7c37 0 67.1 30.1 67.1 67.1s-30.1 67.1-67.1 67.1 -67.1-30.1-67.1-67.1S111.8 81.7 148.8 81.7zM204.9 148.8c0-30.9-25.2-56.1-56.1-56.1 -30.9 0-56.1 25.2-56.1 56.1s25.2 56.1 56.1 56.1C179.7 204.9 204.9 179.7 204.9 148.8z" class="a"/><path d="M174.4 253.8c1.9 1.9 3.9 3.6 6 5.2 -6.2 11-18.1 18.5-31.6 18.5s-25.4-7.5-31.6-18.5c2.1-1.6 4.1-3.3 6-5.2 5.6-5.6 9.8-12.1 12.5-19.1 4.3 0.7 8.7 1 13.2 1s8.9-0.3 13.2-1C164.6 241.6 168.8 248.1 174.4 253.8z" class="a"/><path d="M62.8 135.6c-0.6 4.3-1 8.7-1 13.1s0.3 8.8 1 13.1c-7.1 2.8-13.6 7-19.1 12.6 -1.9 1.9-3.6 3.9-5.2 6 -11-6.2-18.5-18.1-18.5-31.6s7.5-25.4 18.5-31.6c1.6 2.1 3.3 4.1 5.2 6C49.3 128.6 55.8 132.9 62.8 135.6z" class="a"/><path d="M180.4 38.6c-2.1 1.6-4.1 3.3-6 5.2 -5.5 5.5-9.8 12-12.5 19.1 -4.3-0.6-8.7-1-13.1-1s-8.8 0.3-13.1 1c-2.8-7.1-7-13.6-12.5-19.1 -1.9-1.9-3.9-3.6-6-5.2 6.2-11 18.1-18.5 31.6-18.5S174.2 27.5 180.4 38.6z" class="a"/><path d="M258.9 117.1c11 6.2 18.5 18.1 18.5 31.6s-7.5 25.4-18.5 31.6c-1.6-2.1-3.3-4.1-5.2-6 -5.5-5.5-12-9.8-19.1-12.5 0.7-4.3 1-8.7 1-13.1s-0.3-8.8-1-13.1c7.1-2.8 13.6-7 19.1-12.5C255.6 121.2 257.4 119.2 258.9 117.1z" class="a"/><path d="M239.8 57.8c6.9 6.9 10.6 16 10.6 25.7 0 9.7-3.8 18.8-10.6 25.7 -3.1 3.1-6.6 5.5-10.4 7.2 -8.8-21.9-26.3-39.4-48.2-48.2 1.8-3.8 4.2-7.3 7.2-10.4 6.9-6.9 16-10.6 25.7-10.6S232.9 50.9 239.8 57.8z" class="b"/><path d="M109.1 57.8c3.1 3.1 5.5 6.6 7.3 10.4 -21.9 8.8-39.4 26.3-48.2 48.2 -3.8-1.8-7.3-4.2-10.4-7.2 -6.9-6.9-10.6-16-10.6-25.7 0-9.7 3.8-18.8 10.6-25.7 6.9-6.9 16-10.6 25.7-10.6C93.1 47.1 102.2 50.9 109.1 57.8z" class="b"/><path d="M116.3 229.4c-1.7 3.8-4.1 7.3-7.2 10.4 -6.8 6.9-16 10.6-25.7 10.6 -9.7 0-18.8-3.8-25.7-10.6 -14.1-14.1-14.1-37.2 0-51.3 3.1-3.1 6.6-5.5 10.4-7.2C77 203.1 94.4 220.5 116.3 229.4z" class="b"/><path d="M239.8 188.4c14.2 14.2 14.2 37.2 0 51.3 -6.9 6.9-16 10.6-25.7 10.6s-18.8-3.8-25.7-10.6c-3.1-3.1-5.5-6.6-7.2-10.4 21.9-8.8 39.4-26.3 48.2-48.2C233.2 182.9 236.7 185.4 239.8 188.4z" class="b"/><path d="M148.8 112.5c20 0 36.3 16.3 36.3 36.3s-16.3 36.3-36.3 36.3c-20 0-36.3-16.3-36.3-36.3S128.7 112.5 148.8 112.5z" fill="#DEC978"/><path d="M267.9 99.4c17.5 9.5 29.4 28 29.4 49.3s-11.9 39.8-29.4 49.3c5.7 19.1 1 40.6-14.1 55.7 -10.6 10.6-24.7 16.4-39.7 16.4 -5.5 0-10.9-0.8-16-2.3 -9.5 17.5-28 29.4-49.3 29.4 -21.3 0-39.8-11.9-49.3-29.4 -5.1 1.5-10.5 2.3-16 2.3 -15 0-29.1-5.8-39.7-16.4C28.7 238.7 24 217.2 29.7 198.1c-17.5-9.5-29.4-28-29.4-49.3 0-21.3 11.9-39.8 29.4-49.3 -1.5-5.1-2.3-10.5-2.3-16 0-15 5.8-29.1 16.4-39.7 10.6-10.6 24.7-16.4 39.7-16.4 5.5 0 10.9 0.8 16 2.3 9.5-17.5 28-29.4 49.3-29.4 21.3 0 39.8 11.9 49.3 29.4 5.1-1.5 10.5-2.3 16-2.3 15 0 29.1 5.8 39.7 16.4 10.6 10.6 16.4 24.7 16.4 39.7C270.2 88.9 269.4 94.3 267.9 99.4zM277.5 148.8c0-13.6-7.5-25.4-18.5-31.6 -1.6 2.1-3.3 4.1-5.2 6 -5.5 5.5-12 9.8-19.1 12.6 0.7 4.3 1 8.7 1 13.1s-0.3 8.8-1 13.1c7.1 2.8 13.6 7 19.1 12.6 1.9 1.9 3.6 3.9 5.2 6C270 174.2 277.5 162.3 277.5 148.8zM250.4 83.4c0-9.7-3.8-18.8-10.6-25.7 -6.9-6.9-16-10.6-25.7-10.6s-18.8 3.8-25.7 10.6c-3.1 3.1-5.5 6.6-7.2 10.4 21.9 8.8 39.4 26.3 48.2 48.2 3.8-1.8 7.3-4.2 10.4-7.2C246.6 102.2 250.4 93.1 250.4 83.4zM239.8 239.8c14.2-14.1 14.2-37.2 0-51.3 -3.1-3.1-6.6-5.5-10.4-7.2 -8.8 21.9-26.3 39.4-48.2 48.2 1.7 3.8 4.1 7.3 7.2 10.4 6.9 6.9 16 10.6 25.7 10.6S232.9 246.6 239.8 239.8zM215.9 148.8c0-37-30.1-67.1-67.1-67.1s-67.1 30.1-67.1 67.1 30.1 67.1 67.1 67.1S215.9 185.8 215.9 148.8zM174.4 43.8c1.9-1.9 3.9-3.6 6-5.2 -6.2-11-18.1-18.5-31.6-18.5s-25.4 7.5-31.6 18.5c2.1 1.6 4.1 3.3 6 5.2 5.5 5.5 9.8 12 12.5 19.1 4.3-0.6 8.7-1 13.1-1s8.8 0.3 13.1 1C164.7 55.8 168.9 49.3 174.4 43.8zM180.4 258.9c-2.1-1.6-4.1-3.3-5.9-5.2 -5.6-5.6-9.8-12.1-12.5-19.1 -4.3 0.7-8.7 1-13.1 1s-8.9-0.3-13.1-1c-2.7 7-6.9 13.5-12.5 19.1 -1.9 1.9-3.9 3.6-6 5.2 6.2 11 18.1 18.5 31.6 18.5S174.2 270 180.4 258.9zM109.1 239.8c3.1-3.1 5.5-6.6 7.2-10.4 -21.9-8.8-39.3-26.3-48.2-48.2 -3.8 1.8-7.3 4.2-10.4 7.2 -14.1 14.2-14.1 37.2 0 51.3 6.9 6.9 16 10.6 25.7 10.6C93.1 250.4 102.2 246.6 109.1 239.8zM116.3 68.1c-1.8-3.8-4.2-7.3-7.2-10.4 -6.8-6.9-16-10.6-25.7-10.6 -9.7 0-18.8 3.8-25.7 10.6 -6.9 6.9-10.6 16-10.6 25.7 0 9.7 3.8 18.8 10.6 25.7 3.1 3.1 6.6 5.5 10.4 7.2C77 94.5 94.5 77 116.3 68.1zM61.9 148.8c0-4.5 0.3-8.8 1-13.1 -7.1-2.8-13.6-7-19.1-12.5 -1.9-1.9-3.6-3.9-5.2-5.9 -11 6.2-18.5 18.1-18.5 31.6s7.5 25.4 18.5 31.6c1.6-2.1 3.3-4.1 5.2-6 5.5-5.5 12-9.8 19.1-12.5C62.2 157.6 61.9 153.2 61.9 148.8z"/><path d="M148.8 92.7c30.9 0 56.1 25.2 56.1 56.1s-25.2 56.1-56.1 56.1c-30.9 0-56.1-25.2-56.1-56.1S117.8 92.7 148.8 92.7zM185.1 148.8c0-20-16.3-36.3-36.3-36.3 -20 0-36.3 16.3-36.3 36.3s16.3 36.3 36.3 36.3C168.8 185.1 185.1 168.8 185.1 148.8z"/></svg>