<svg xmlns="http://www.w3.org/2000/svg" viewBox="145 0 297.5 297.5"><style>.a{fill:#612280;}</style><path d="M426.6 61.5c-2.4-3.9-7.5-5.1-11.4-2.7 -3.9 2.4-5.1 7.5-2.7 11.4 25.2 40.5 29.7 85.8 29 116.6 -0.6 26-4.8 46.4-6.7 54.6l-91.4 35.2 50.4-49.7c1.3-1.3 2.1-3 2.4-4.8 0.2-1.4 4.5-34 1.4-77.3 -2.9-40.2-13.3-97.5-45.8-141.6 -2.7-3.7-7.9-4.5-11.5-1.8 -3.7 2.7-4.5 7.9-1.8 11.5 53.2 72.2 43.7 185.2 41.7 204.1l-22 21.7c1.7-7.4 2.5-15 2.5-22.7 0-57.7-46.9-104.6-104.6-104.6S151.4 158.7 151.4 216.3c0 7.7 0.9 15.3 2.5 22.7l-22.1-21.7c-2-18.9-11.6-131.8 41.7-204.1 2.7-3.7 1.9-8.8-1.8-11.5 -3.7-2.7-8.8-1.9-11.5 1.8 -32.5 44.1-42.8 101.4-45.8 141.6 -3.2 43.3 1.2 75.9 1.4 77.3 0.2 1.8 1.1 3.5 2.4 4.8l50.4 49.7 -91.4-35.2c-4.5-18.8-20.7-102.2 22.2-171.3 2.4-3.9 1.2-9-2.7-11.4 -3.9-2.4-9-1.2-11.4 2.7 -27.4 44.1-32.2 93-31.5 126.2 0.8 35.9 8.1 61.2 8.4 62.2 0.7 2.5 2.6 4.5 5 5.4l140.3 54.1c-4.8 5.6-8.6 12.1-11.2 19.1l-103.9-9.3c-4-0.4-7.6 2.2-8.7 6 -0.3 1-7 25.3-7.6 58.6 -0.8 44.4 9.9 83.7 30.9 113.6 1.6 2.3 4.2 3.5 6.8 3.5 1.6 0 3.3-0.5 4.7-1.5 3.7-2.6 4.6-7.8 2-11.5 -38.8-55.2-27.2-129.3-22.5-151.6l94.6 8.5c-0.2 2-0.3 4-0.3 6.1 0 1 0 2 0.1 2.9l-60.9 13.3c-3.3 0.7-5.8 3.4-6.4 6.8 -0.6 3.5-13 85.2 37.5 135.8 1.6 1.6 3.7 2.4 5.8 2.4s4.2-0.8 5.8-2.4c3.2-3.2 3.2-8.5 0-11.7 -37.6-37.6-35.3-97.6-33.5-116l54.5-11.9c5 15.8 16 28.9 30.3 36.7v27.9c0 4.6 3.7 8.3 8.3 8.3 4.6 0 8.3-3.7 8.3-8.3v-21.7c4.4 1 9 1.5 13.8 1.5s9.3-0.5 13.8-1.5v21.7c0 4.6 3.7 8.3 8.3 8.3 4.6 0 8.3-3.7 8.3-8.3v-27.9c14.3-7.8 25.3-20.9 30.3-36.7l54.5 11.9c1.7 18.4 4 78.4-33.5 116 -3.2 3.2-3.2 8.5 0 11.7 1.6 1.6 3.7 2.4 5.8 2.4s4.2-0.8 5.8-2.4c50.6-50.6 38.1-132.3 37.5-135.8 -0.5-3.4-3.1-6-6.4-6.8l-60.9-13.3c0-1 0.1-2 0.1-2.9 0-2.1-0.1-4.1-0.3-6.1l94.6-8.5c4.7 22.3 16.4 96.3-22.5 151.6 -2.6 3.7-1.7 8.9 2 11.5 1.4 1 3.1 1.5 4.7 1.5 2.6 0 5.2-1.2 6.8-3.5 21-29.9 31.7-69.1 30.9-113.6 -0.6-33.3-7.3-57.6-7.6-58.6 -1.1-3.8-4.7-6.4-8.7-6l-103.9 9.3c-2.6-7-6.4-13.4-11.2-19.1l140.3-54.1c2.4-0.9 4.2-2.9 5-5.4 0.3-1.1 7.5-26.4 8.4-62.2C458.8 154.5 454 105.6 426.6 61.5zM256 397.9c-26 0-47.1-21.1-47.1-47.1 0-20.9 13.4-39 33.3-45 4.4-1.3 6.8-5.9 5.5-10.3 -1.3-4.4-5.9-6.8-10.3-5.5 -5.8 1.8-11.1 4.3-16 7.4 -32.2-13.8-53.5-45.8-53.5-81 0-48.6 39.5-88.1 88.1-88.1s88.1 39.5 88.1 88.1c0 35.3-21.3 67.3-53.5 81 -4.9-3.1-10.2-5.6-16-7.4 -4.4-1.3-9 1.1-10.3 5.5s1.1 9 5.5 10.3c19.9 6.1 33.3 24.2 33.3 45C303.1 376.8 282 397.9 256 397.9z"/><path d="M256 224.6c4.6 0 8.3-3.7 8.3-8.3v-11c0-4.6-3.7-8.3-8.3-8.3s-8.3 3.7-8.3 8.3v11C247.7 220.9 251.4 224.6 256 224.6z" class="a"/><path d="M223 164c-4.6 0-8.3 3.7-8.3 8.3v11c0 4.6 3.7 8.3 8.3 8.3s8.3-3.7 8.3-8.3v-11C231.2 167.7 227.5 164 223 164z" class="a"/><path d="M289 191.6c4.6 0 8.3-3.7 8.3-8.3v-11c0-4.6-3.7-8.3-8.3-8.3s-8.3 3.7-8.3 8.3v11C280.8 187.9 284.5 191.6 289 191.6z" class="a"/><path d="M269.8 305.8c-4.4-1.3-6.8-5.9-5.5-10.3 1.3-4.4 5.9-6.8 10.3-5.5 5.8 1.8 11.1 4.3 16 7.4 32.2-13.8 53.5-45.8 53.5-81 0-48.6-39.5-88.1-88.1-88.1s-88.1 39.5-88.1 88.1c0 35.3 21.3 67.3 53.5 81 4.9-3.1 10.2-5.6 16-7.4 4.4-1.3 9 1.1 10.3 5.5 1.3 4.4-1.1 9-5.5 10.3 -19.9 6.1-33.3 24.2-33.3 45 0 26 21.1 47.1 47.1 47.1s47.1-21.1 47.1-47.1C303.1 329.9 289.7 311.8 269.8 305.8zM280.8 172.3c0-4.6 3.7-8.3 8.3-8.3s8.3 3.7 8.3 8.3v11c0 4.6-3.7 8.3-8.3 8.3s-8.3-3.7-8.3-8.3V172.3zM231.2 183.3c0 4.6-3.7 8.3-8.3 8.3s-8.3-3.7-8.3-8.3v-11c0-4.6 3.7-8.3 8.3-8.3s8.3 3.7 8.3 8.3V183.3zM247.7 205.3c0-4.6 3.7-8.3 8.3-8.3s8.3 3.7 8.3 8.3v11c0 4.6-3.7 8.3-8.3 8.3s-8.3-3.7-8.3-8.3V205.3z" fill="#8859A0"/></svg>