<svg xmlns="http://www.w3.org/2000/svg" viewBox="145 0 297.5 297.5"><style>.a{fill:#00C853;}.b{fill:#FFEB3B;}</style><path d="M125.8 78.9c14.8 14.8 4.6 50-22.3 76.9 -17.9 17.9-40.1 29-58 29 -8.1 0-14.5-2.3-18.9-6.7 -14.8-14.8-4.6-50 22.3-76.9 17.9-17.9 40.1-29 58-29C115 72.2 121.4 74.4 125.8 78.9z" class="a"/><path d="M248.6 101.2c26.9 26.9 37.1 62.1 22.3 77 -4.4 4.4-10.8 6.7-18.9 6.7 -17.9 0-40.1-11.1-58-29 -26.9-26.9-37.1-62.1-22.3-76.9 4.5-4.4 10.8-6.7 18.9-6.7C208.5 72.2 230.7 83.3 248.6 101.2z" class="a"/><path d="M171.2 55.9c0 0.1 0 0.2 0 0.3 -5.1 2.1-9.6 5-13.4 8.8 -3.9 3.9-7.1 8.4-9.1 13.4 -2-5-5.2-9.5-9.1-13.4 -3.8-3.8-8.3-6.7-13.4-8.8 0-0.1 0-0.2 0-0.3 0-12.4 10.1-22.5 22.5-22.5C161.2 33.5 171.2 43.5 171.2 55.9z" class="b"/><path d="M148.7 119.4c2.3 7.5 5.6 15.2 10 22.8 -3.2 0.5-6.6 0.8-10 0.8s-6.8-0.3-10-0.8C143.1 134.6 146.5 126.9 148.7 119.4z" class="b"/><path d="M180.2 169.7c1.9 1.9 3.7 3.6 5.6 5.3 -4.8 9.2-20.1 16.4-37.1 16.4s-32.2-7.2-37.1-16.4c1.9-1.7 3.8-3.5 5.6-5.3 3.3-3.3 6.4-6.7 9.3-10.2 6.8 2 14.3 3.1 22.2 3.1 7.9 0 15.4-1.1 22.2-3.1C173.8 163 176.9 166.4 180.2 169.7z" class="b"/><path d="M187.4 200.6v3.3c0 21.3-17.3 38.6-38.6 38.6 -21.3 0-38.6-17.3-38.6-38.6v-3.3c10.2 6.5 23.7 10.4 38.6 10.4S177.2 207.1 187.4 200.6z" class="b"/><path d="M262.5 87.4c35.6 35.6 45.4 81.5 22.3 104.6 -8.1 8.1-19.5 12.4-32.8 12.4 0 0 0 0 0 0 -14.3 0-30-4.9-45.1-13.8v13.3c0 28.8-21 52.7-48.4 57.4v20.6c0 5.4-4.4 9.8-9.8 9.8s-9.8-4.4-9.8-9.8v-20.6c-27.4-4.7-48.4-28.6-48.4-57.4v-13.3c-15 8.9-30.7 13.8-45.1 13.8 -13.3 0-24.6-4.3-32.8-12.4 -23.1-23.1-13.3-69 22.3-104.6 21.7-21.7 48.6-34.7 71.8-34.7 0.4-4.7 1.5-9.2 3.3-13.4 -0.2-0.2-0.4-0.4-0.6-0.6l-16.1-16.1c-3.8-3.8-3.8-10 0-13.8s10-3.8 13.8 0l14.8 14.8c7.3-6 16.6-9.6 26.7-9.6s19.4 3.6 26.7 9.6l14.8-14.8c3.8-3.8 10-3.8 13.8 0 3.8 3.8 3.8 10 0 13.8l-16.1 16.1c-0.2 0.2-0.4 0.4-0.6 0.6 1.8 4.2 3 8.7 3.3 13.4C213.9 52.6 240.7 65.6 262.5 87.4zM270.9 178.1c14.8-14.8 4.6-50-22.3-76.9 -17.9-17.9-40.1-29-58-29 -8.1 0-14.5 2.3-18.9 6.7 -14.8 14.8-4.6 50 22.3 76.9 17.9 17.9 40.1 29 58 29C260.1 184.8 266.5 182.6 270.9 178.1zM187.4 203.9v-3.3c-10.2 6.5-23.7 10.4-38.6 10.4s-28.4-3.9-38.6-10.4v3.3c0 21.3 17.3 38.6 38.6 38.6C170.1 242.5 187.4 225.2 187.4 203.9zM185.8 175c-1.9-1.7-3.8-3.5-5.6-5.3 -3.3-3.3-6.4-6.7-9.2-10.2 -6.8 2-14.3 3.1-22.2 3.1 -7.9 0-15.4-1.1-22.2-3.1 -2.9 3.5-5.9 6.9-9.3 10.2 -1.8 1.9-3.7 3.6-5.6 5.3 4.8 9.2 20.1 16.4 37.1 16.4S181 184.2 185.8 175zM171.2 56.2c0-0.1 0-0.2 0-0.3 0-12.4-10.1-22.5-22.5-22.5 -12.4 0-22.5 10.1-22.5 22.5 0 0.1 0 0.2 0 0.3 5.1 2.1 9.6 5 13.4 8.8 3.9 3.9 7.1 8.4 9.1 13.4 2.1-5 5.3-9.5 9.1-13.4C161.7 61.3 166.2 58.3 171.2 56.2zM158.8 142.2c-4.4-7.6-7.8-15.3-10-22.8 -2.2 7.5-5.6 15.2-10 22.8 3.2 0.5 6.6 0.8 10 0.8S155.6 142.7 158.8 142.2zM103.5 155.8c26.9-26.9 37.1-62.1 22.3-76.9 -4.4-4.4-10.8-6.7-18.9-6.7 -17.9 0-40.1 11.1-58 29 -26.9 26.9-37.1 62.1-22.3 77 4.5 4.4 10.8 6.7 18.9 6.7C63.4 184.8 85.6 173.7 103.5 155.8z"/></svg>
 