<svg xmlns="http://www.w3.org/2000/svg" viewBox="145 0 297.5 297.5"><style>.a{fill:#06A3B6;}.b{fill:#00BFA5;}</style><path d="M277.2 51.4c2.1 4.5-5.6 28.8-36 59.2 -23.8 23.8-46.8 36.2-57.3 36.2 -1 0-1.6-0.1-1.9-0.2 -2.1-4.5 5.6-28.7 36-59.2 23.8-23.8 46.8-36.2 57.3-36.2C276.4 51.1 277 51.3 277.2 51.4z" class="a"/><path d="M79.5 87.4c30.4 30.4 38.1 54.7 36 59.2 -0.3 0.1-0.9 0.2-1.9 0.2 -10.5 0-33.5-12.4-57.3-36.2 -30.4-30.4-38.1-54.7-36-59.2 0.3-0.1 0.9-0.2 1.9-0.2C32.6 51.1 55.7 63.6 79.5 87.4z" class="a"/><path d="M241.2 194.9c30.4 30.4 38.1 54.7 36 59.2 -0.3 0.1-0.9 0.2-1.9 0.2 -5.2 0-13.6-3.1-23.7-9.2 -10-6.1-21.7-15.1-33.6-27 -22.2-22.3-32.3-41.2-35.3-51.5 0.4 0 0.8 0 1.2 0 2.3 0 4.8-0.3 7.4-0.8 2.6-0.5 5.4-1.3 8.2-2.4C211 169 226 179.6 241.2 194.9z" class="b"/><path d="M113.6 166.6c0.4 0 0.8 0 1.2 0 -3 10.3-13.1 29.3-35.3 51.5 -23.8 23.8-46.8 36.2-57.3 36.2 -1 0-1.6-0.1-1.9-0.2 -2.1-4.5 5.6-28.7 36-59.2 15.3-15.2 30.2-25.8 41.7-31.5C103.7 165.5 109 166.6 113.6 166.6z" class="b"/><path d="M148.7 44.3c10.2 0 18.4 8.3 18.4 18.4 0 10.2-8.3 18.4-18.4 18.4 -10.1 0-18.4-8.3-18.4-18.4C130.3 52.6 138.6 44.3 148.7 44.3z" class="b"/><path d="M159 119.3c0 7.1-2 42.7-5.1 77.4 -1.8 20.1-3.6 35-5.1 45.9 -1.5-10.9-3.3-25.8-5.1-45.9 -3.1-34.7-5.1-70.3-5.1-77.4 0-10.5 5.4-18.4 10.2-18.4C153.6 100.9 159 108.8 159 119.3z" fill="#FF80AB"/><path d="M291.3 37.3c17.6 17.6-6.3 57.5-36 87.2 -11.4 11.4-23.3 21-34.6 28.2 11.3 7.1 23.2 16.7 34.6 28.2 29.7 29.7 53.6 69.6 36 87.2 -1.4 1.4-3.3 2.9-5.9 4 -2.6 1.2-5.9 2-10 2 -17.8 0-45.8-16.5-71.3-42 -12.3-12.3-22.7-25.4-30.1-37.7 -0.3 3.9-0.7 7.9-1.1 11.8 -2.1 21.9-4.3 39.4-6.5 52.1 -3.1 17.6-6.3 31-17.6 31 -11.3 0-14.5-13.4-17.6-31 -2.2-12.7-4.4-30.2-6.5-52.1 -0.4-3.9-0.7-7.9-1.1-11.8 -7.4 12.3-17.8 25.4-30.1 37.7 -25.5 25.5-53.5 42-71.3 42 -8.2 0-13.2-3.3-15.9-6 -17.6-17.6 6.3-57.5 36-87.2 11.4-11.4 23.3-21 34.6-28.1 -11.3-7.1-23.2-16.7-34.6-28.1 -29.7-29.7-53.6-69.6-36-87.2 2.7-2.7 7.7-6 15.9-6 17.8 0 45.8 16.5 71.3 42 10.7 10.7 19.9 21.9 27 32.8 1.3-4.7 3.3-8.9 5.9-12.5 -9.6-6.9-15.8-18.2-15.8-30.9 0-6 1.4-11.7 3.9-16.8l-21.6-20.7c-3.9-3.8-4.1-10-0.3-14 3.8-3.9 10.1-4.1 14-0.3l20.9 20.1c6.1-4.1 13.4-6.5 21.3-6.5s15.2 2.4 21.3 6.5l20.9-20c4-3.8 10.2-3.6 14 0.3 3.8 4 3.7 10.2-0.3 14l-21.6 20.7c2.5 5.1 3.9 10.8 3.9 16.8 0 12.7-6.2 24-15.8 30.9 2.5 3.6 4.5 7.8 5.9 12.5 7.1-10.8 16.4-22.1 27-32.8 25.5-25.5 53.5-42 71.3-42C283.5 31.3 288.5 34.6 291.3 37.3zM241.2 110.6c30.4-30.4 38.1-54.7 36-59.2 -0.3-0.1-0.9-0.2-1.9-0.2 -10.5 0-33.5 12.4-57.3 36.2 -30.4 30.4-38.1 54.7-36 59.2 0.3 0.1 0.9 0.2 1.9 0.2C194.4 146.8 217.5 134.3 241.2 110.6zM277.2 254c2.1-4.5-5.6-28.7-36-59.2 -15.2-15.2-30.2-25.8-41.7-31.5 -2.9 1-5.6 1.8-8.2 2.4 -2.6 0.5-5.1 0.8-7.4 0.8 -0.4 0-0.8 0-1.2 0 3 10.3 13.1 29.3 35.3 51.5 11.9 11.9 23.6 20.9 33.6 27 10.1 6.1 18.4 9.2 23.7 9.2C276.4 254.3 277 254.1 277.2 254zM167.2 62.7c0-10.1-8.3-18.4-18.4-18.4 -10.1 0-18.4 8.3-18.4 18.4 0 10.2 8.3 18.4 18.4 18.4C158.9 81.1 167.2 72.9 167.2 62.7zM153.8 196.7c3.1-34.7 5.2-70.3 5.2-77.4 0-10.5-5.4-18.4-10.2-18.4 -4.8 0-10.2 7.9-10.2 18.4 0 7.1 2 42.7 5.2 77.4 1.8 20.1 3.6 35 5.1 45.9C150.3 231.7 152 216.9 153.8 196.7zM115.5 146.5c2.1-4.5-5.6-28.7-36-59.2 -23.8-23.8-46.8-36.2-57.3-36.2 -1 0-1.6 0.1-1.9 0.2 -2.1 4.5 5.6 28.8 36 59.2 23.8 23.8 46.8 36.2 57.3 36.2C114.6 146.8 115.2 146.6 115.5 146.5zM114.8 166.5c-0.4 0-0.8 0-1.2 0 -4.6 0-9.9-1.1-15.6-3.2 -11.5 5.6-26.5 16.2-41.7 31.5 -30.4 30.4-38.1 54.7-36 59.2 0.3 0.1 0.9 0.2 1.9 0.2 10.5 0 33.5-12.4 57.3-36.2C101.7 195.8 111.8 176.9 114.8 166.5z"/></svg>