<svg xmlns="http://www.w3.org/2000/svg" viewBox="145 0 297.5 297.5"><style>.a{fill:#FFEB3B;}.b{fill:#F44336;}</style><path d="M96.7 162.7c4.3 0 7.8 3.5 7.8 7.8s-3.5 7.8-7.7 7.8c-4.3 0-7.7-3.5-7.7-7.7S92.4 162.7 96.7 162.7z" class="a"/><path d="M200.8 162.7c4.3 0 7.8 3.5 7.8 7.8s-3.5 7.8-7.7 7.8c-4.3 0-7.7-3.5-7.7-7.7S196.6 162.7 200.8 162.7z" class="a"/><path d="M148.8 41.2c11.4 0 21.1 7.7 24.1 18.1 -7.8-1.7-15.8-2.6-24.1-2.6 -8.3 0-16.3 0.9-24.1 2.6C127.7 48.8 137.4 41.2 148.8 41.2z" fill="#C7A488"/><path d="M158.4 76.4c47.6 4.8 85 45.2 85 94.1s-37.3 89.2-84.9 94.1V76.4zM227.8 170.5c0-14.9-12.1-27-27-27 -14.9 0-27 12.1-27 27 0 14.9 12.1 27 27 27C215.7 197.4 227.8 185.3 227.8 170.5zM200.8 109.7c0-4.8-3.9-8.7-8.7-8.7 -4.8 0-8.7 3.9-8.7 8.7 0 4.8 3.9 8.7 8.7 8.7C197 118.4 200.8 114.5 200.8 109.7zM200.8 231.2c0-4.8-3.9-8.7-8.7-8.7 -4.8 0-8.7 3.9-8.7 8.7 0 4.8 3.9 8.7 8.7 8.7C197 239.9 200.8 236 200.8 231.2z" class="b"/><path d="M139.1 76.4v188.1c-47.6-4.8-84.9-45.2-84.9-94.1S91.5 81.2 139.1 76.4zM123.6 170.5c0-14.9-12.1-27-27-27s-27 12.1-27 27c0 14.9 12.1 27 27 27S123.6 185.3 123.6 170.5zM114 109.7c0-4.8-3.9-8.7-8.7-8.7s-8.7 3.9-8.7 8.7c0 4.8 3.9 8.7 8.7 8.7S114 114.5 114 109.7zM114 231.2c0-4.8-3.9-8.7-8.7-8.7s-8.7 3.9-8.7 8.7c0 4.8 3.9 8.7 8.7 8.7S114 236 114 231.2z" class="b"/><path d="M287.6 160.8c5.3 0 9.6 4.3 9.6 9.6s-4.3 9.6-9.6 9.6h-25.5c-1.7 19.8-8.4 38.2-19 53.8l16.6 16.6c3.8 3.8 3.8 9.8 0 13.6 -1.9 1.9-4.3 2.8-6.8 2.8 -2.5 0-4.9-0.9-6.8-2.8l-15.1-15.1c-20.7 21.7-49.9 35.3-82.3 35.3 -32.3 0-61.5-13.5-82.3-35.3l-15.1 15.1c-1.9 1.9-4.3 2.8-6.8 2.8s-4.9-0.9-6.8-2.8c-3.7-3.7-3.7-9.8 0-13.6l16.6-16.6c-10.5-15.6-17.3-34-19-53.8H9.9c-5.3 0-9.6-4.3-9.6-9.6s4.3-9.6 9.6-9.6h25.5c1.7-19.8 8.4-38.2 19-53.8L37.8 90.4c-3.7-3.7-3.7-9.8 0-13.6s9.8-3.7 13.6 0l15.1 15.1c10.7-11.2 23.6-20.2 38-26.3 0.1-6.3 1.5-12.3 3.9-17.7L89.9 29.7c-3.7-3.7-3.7-9.8 0-13.6 3.8-3.8 9.8-3.8 13.6 0l16.5 16.5c7.8-6.6 17.8-10.6 28.8-10.6 11 0 21 4 28.8 10.7l16.5-16.5c3.8-3.8 9.8-3.8 13.6 0 3.8 3.8 3.8 9.8 0 13.6L189.1 48c2.5 5.4 3.9 11.4 3.9 17.7 14.4 6.1 27.3 15.1 38 26.3l15.1-15.1c3.8-3.7 9.8-3.7 13.6 0 3.8 3.8 3.8 9.8 0 13.6L243.2 107c10.6 15.6 17.3 34 19 53.8H287.6zM243.3 170.5c0-48.9-37.3-89.2-84.9-94.1v188.1C206 259.7 243.3 219.3 243.3 170.5zM172.9 59.3c-3-10.4-12.7-18.1-24.1-18.1 -11.4 0-21 7.7-24.1 18.1 7.8-1.7 15.8-2.6 24.1-2.6C157 56.7 165.1 57.6 172.9 59.3zM139.1 264.5V76.4C91.5 81.2 54.2 121.6 54.2 170.5S91.5 259.7 139.1 264.5z"/><path d="M200.8 143.5c14.9 0 27 12.1 27 27 0 14.9-12.1 27-27 27 -14.9 0-27-12.1-27-27C173.9 155.6 186 143.5 200.8 143.5zM208.6 170.5c0-4.3-3.5-7.7-7.7-7.7 -4.3 0-7.7 3.5-7.7 7.8s3.5 7.8 7.8 7.8C205.1 178.2 208.6 174.7 208.6 170.5z"/><path d="M192.2 101c4.8 0 8.7 3.9 8.7 8.7 0 4.8-3.9 8.7-8.7 8.7 -4.8 0-8.7-3.9-8.7-8.7C183.5 104.9 187.4 101 192.2 101z"/><path d="M192.2 222.5c4.8 0 8.7 3.9 8.7 8.7 0 4.8-3.9 8.7-8.7 8.7 -4.8 0-8.7-3.9-8.7-8.7C183.5 226.4 187.4 222.5 192.2 222.5z"/><path d="M96.7 143.5c14.9 0 27 12.1 27 27 0 14.9-12.1 27-27 27s-27-12.1-27-27C69.7 155.6 81.8 143.5 96.7 143.5zM104.4 170.5c0-4.3-3.5-7.7-7.7-7.7 -4.3 0-7.7 3.5-7.7 7.8s3.5 7.8 7.8 7.8C100.9 178.2 104.4 174.7 104.4 170.5z"/><path d="M105.4 101c4.8 0 8.7 3.9 8.7 8.7 0 4.8-3.9 8.7-8.7 8.7s-8.7-3.9-8.7-8.7C96.7 104.9 100.6 101 105.4 101z"/><path d="M105.4 222.5c4.8 0 8.7 3.9 8.7 8.7 0 4.8-3.9 8.7-8.7 8.7s-8.7-3.9-8.7-8.7C96.7 226.4 100.6 222.5 105.4 222.5z"/></svg>