<svg xmlns="http://www.w3.org/2000/svg" viewBox="145 0 297.5 297.5"><style>.a{fill:#96B6C5;}</style><path d="M243.8 154.1c-4.5-1.8-9.5-2.8-14.7-2.8 0 0 0 0-0.1 0 -14.2-30.1-44.9-51-80.4-51 -35.9 0-66.9 21.4-80.9 52.2 -3-0.7-6.1-1.1-9.3-1.1 -1.3 0-2.6 0.1-3.9 0.2 15-37.3 51.5-63.7 94.1-63.7C192.3 87.8 229.6 115.4 243.8 154.1z" fill="#E98547"/><path d="M210.1 156.3c-3.7 2.1-7.1 4.8-9.9 8 -9.2-19.1-28.8-32.3-51.4-32.3 -25.1 0-46.5 16.4-54.1 39 -0.7 0.1-1.4 0.2-2.1 0.3 -2-3.7-4.6-6.9-7.7-9.7 10.7-24.7 35.3-42 63.9-42C175.3 119.5 198.4 134.4 210.1 156.3z" fill="#DEC978"/><path d="M268.2 190c5.5 0 9.9 4.4 9.9 9.9 0 5.5-4.4 9.9-9.9 9.9h-68.2c-5.4 0-9.9-4.4-9.9-9.9 0-5.4 4.4-9.9 9.9-9.9 0.2 0 0.5 0 0.9 0 4.4 0.4 8.4-2.3 9.9-6.4 2.8-7.8 10.2-13.1 18.5-13.1 9.2 0 17 6.2 19.1 15.2 0.7 3 2.9 5.5 5.7 6.7 2.9 1.2 6.2 0.9 8.8-0.8C264.4 190.5 266.3 190 268.2 190z" class="a"/><path d="M97.6 190c5.5 0 9.9 4.4 9.9 9.9 0 5.5-4.4 9.9-9.9 9.9H29.4c-5.4 0-9.9-4.4-9.9-9.9 0-5.4 4.4-9.9 9.9-9.9 0.2 0 0.5 0 0.9 0 4.4 0.4 8.4-2.3 9.9-6.4 2.8-7.8 10.2-13.1 18.5-13.1 9.2 0 17 6.2 19.1 15.2 0.7 3 2.9 5.5 5.7 6.7 2.9 1.2 6.2 0.9 8.8-0.8C93.8 190.5 95.7 190 97.6 190z" class="a"/><path d="M268.2 170.8c16 0 29.1 13.1 29.1 29.1 0 16.1-13 29.1-29.1 29.1h-68.2c-16 0-29.1-13-29.1-29.1 0-10.2 5.3-19.2 13.3-24.4 -5.5-14.2-19.3-24.3-35.4-24.3s-29.9 10.1-35.4 24.3c8 5.2 13.3 14.2 13.3 24.4 0 16.1-13 29.1-29.1 29.1H29.4c-16 0-29.1-13-29.1-29.1 0-14.5 10.6-26.5 24.5-28.7 1.8-3.1 4-6 6.5-8.5 12.1-53.8 60.2-94.1 117.6-94.1 60.2 0 110.3 44.4 119.1 102.2C268 170.8 268.1 170.8 268.2 170.8zM278 199.9c0-5.4-4.4-9.9-9.9-9.9 -1.9 0-3.7 0.5-5.3 1.6 -2.6 1.7-5.9 2-8.8 0.8 -2.9-1.2-5-3.7-5.7-6.7 -2.1-8.9-9.9-15.1-19.1-15.1 -8.3 0-15.8 5.3-18.5 13.1 -1.4 4.1-5.5 6.8-9.9 6.4 -0.3 0-0.6 0-0.8 0 -5.4 0-9.9 4.4-9.9 9.9 0 5.5 4.4 9.9 9.9 9.9h68.2C273.6 209.7 278 205.3 278 199.9zM229.2 151.3c5.2 0 10.1 1 14.7 2.9 -14.3-38.7-51.5-66.4-95.1-66.4 -42.6 0-79.1 26.4-94.1 63.7 1.3-0.1 2.6-0.2 3.9-0.2 3.2 0 6.3 0.4 9.3 1.1 14-30.7 45-52.1 80.9-52.1 35.5 0 66.1 20.9 80.4 51C229.1 151.3 229.2 151.3 229.2 151.3zM200.2 164.3c2.9-3.2 6.2-5.9 9.9-8 -11.7-21.9-34.8-36.8-61.4-36.8 -28.6 0-53.2 17.3-63.9 42 3 2.8 5.6 6.1 7.7 9.7 0.7-0.1 1.4-0.2 2.1-0.3 7.6-22.6 29-39 54.2-39C171.4 131.9 191 145.2 200.2 164.3zM107.5 199.9c0-5.4-4.4-9.9-9.9-9.9 -1.9 0-3.7 0.5-5.3 1.6 -2.6 1.7-5.9 2-8.8 0.8 -2.9-1.2-5-3.7-5.7-6.7 -2.1-8.9-9.9-15.1-19.1-15.1 -8.3 0-15.8 5.3-18.5 13.1 -1.4 4.1-5.5 6.8-9.9 6.4 -0.3 0-0.6 0-0.8 0 -5.4 0-9.9 4.4-9.9 9.9 0 5.5 4.4 9.9 9.9 9.9h68.2C103 209.7 107.5 205.3 107.5 199.9z"/></svg>