<svg xmlns="http://www.w3.org/2000/svg" viewBox="146 0 298 298"><path d="M181 193.2l-13.8 13.9c-1.8 1.8-2.8 4.3-2.8 6.9v63.9h-28.1v-75.6c0-2.6-1-5-2.8-6.9l-16.9-16.9 3.1-3.1 12 12c2.8 2.8 7 3.6 10.6 2.1 3.6-1.5 6-5 6-9v-18.1h4.4v29.9c0 3.9 2.4 7.5 6 9 3.6 1.5 7.8 0.7 10.6-2.1l8.9-8.9L181 193.2z" fill="#795548"/><path d="M267.3 119.9c0 13.6-6 26.3-16.5 34.9 -3 2.4-4.2 6.4-3.2 10.1 0.9 3.3 1.4 6.6 1.4 10 0 20.6-16.8 37.4-37.4 37.4h-22l12.1-12.1c1.8-1.8 2.9-4.3 2.9-6.9 0-2.6-1-5-2.8-6.9l-16.8-16.8c-3.5-3.5-9.1-3.8-12.9-0.7v-16.2c0-5.4-4.3-9.7-9.7-9.7h-23.8c-5.4 0-9.7 4.4-9.7 9.7v4.4l-2.3-2.3c-1.8-1.8-4.3-2.8-6.9-2.8 -2.6 0-5 1-6.9 2.8l-16.8 16.8c-3.8 3.8-3.8 10 0 13.7l20.9 20.9v6h-30.8c-20.6 0-37.4-16.8-37.4-37.4 0-3.4 0.5-6.7 1.4-10 1-3.7-0.2-7.6-3.2-10.1 -10.5-8.6-16.5-21.4-16.5-34.9 0-24.9 20.3-45.2 45.2-45.2 0.6 0 1.3 0 1.9 0.1 4.6 0.2 8.7-2.8 9.8-7.3 7.2-28.1 32.5-47.7 61.6-47.7 29.1 0 54.4 19.6 61.6 47.7 1.1 4.5 5.2 7.5 9.8 7.3 0.6 0 1.3-0.1 1.9-0.1C247 74.6 267.3 94.9 267.3 119.9z" fill="#00C853"/><path d="M286.7 119.9c0 17.4-6.9 33.8-19.1 45.9 0.5 3 0.7 6.1 0.7 9.1 0 31.3-25.5 56.8-56.8 56.8h-27.8v55.9c0 5.4-4.3 9.7-9.7 9.7h-47.5c-5.4 0-9.7-4.3-9.7-9.7v-55.9h-30.8c-31.3 0-56.8-25.5-56.8-56.8 0-3 0.3-6.1 0.7-9.1 -12.2-12.1-19-28.5-19-45.8 0-34 26.4-61.9 59.7-64.5 11.6-32.8 42.8-55.1 78.2-55.1 35.4 0 66.6 22.3 78.2 55.1C260.3 57.9 286.7 85.9 286.7 119.9zM250.8 154.8c10.5-8.6 16.5-21.4 16.5-34.9 0-24.9-20.3-45.2-45.2-45.2 -0.6 0-1.3 0-1.9 0.1 -4.6 0.2-8.7-2.8-9.8-7.3 -7.2-28.1-32.5-47.7-61.6-47.7 -29 0-54.4 19.6-61.6 47.7 -1.1 4.5-5.2 7.5-9.8 7.3 -0.6 0-1.2-0.1-1.9-0.1 -24.9 0-45.2 20.3-45.2 45.2 0 13.6 6 26.3 16.5 34.9 3 2.4 4.2 6.4 3.2 10.1 -0.9 3.3-1.3 6.6-1.3 10 0 20.6 16.8 37.4 37.4 37.4h30.8v-6l-20.9-20.9c-3.8-3.8-3.8-9.9 0-13.7l16.8-16.8c1.8-1.8 4.3-2.8 6.9-2.8 2.6 0 5.1 1 6.9 2.8l2.3 2.3v-4.4c0-5.4 4.4-9.7 9.7-9.7h23.8c5.4 0 9.7 4.4 9.7 9.7v16.2c3.8-3.1 9.4-2.8 13 0.7l16.8 16.8c1.8 1.8 2.9 4.3 2.9 6.9 0 2.6-1 5.1-2.8 6.9l-12.1 12.1h22c20.6 0 37.4-16.8 37.4-37.4 0-3.4-0.4-6.7-1.3-10C246.6 161.2 247.8 157.2 250.8 154.8zM167.2 207.1l13.9-13.8 -3.1-3.1 -8.9 8.9c-2.8 2.8-7 3.6-10.6 2.1 -3.6-1.5-6-5-6-9v-29.8h-4.3v18.1c0 3.9-2.4 7.5-6 9 -3.6 1.5-7.8 0.7-10.6-2.1l-12-12 -3.1 3.1 16.9 16.9c1.8 1.8 2.8 4.3 2.8 6.9v75.6h28.1v-63.9C164.3 211.4 165.4 208.9 167.2 207.1z"/></svg>